<?xml version="1.0" encoding="utf-8"?>
<!-- Generator: Adobe Illustrator 24.0.2, SVG Export Plug-In . SVG Version: 6.00 Build 0)  -->
<svg version="1.1" id="Layer_1" xmlns="http://www.w3.org/2000/svg" xmlns:xlink="http://www.w3.org/1999/xlink" x="0px" y="0px"
	 viewBox="0 0 186.5 58.53" style="enable-background:new 0 0 186.5 58.53;" xml:space="preserve">
<style type="text/css">
	.st0{clip-path:url(#SVGID_2_);}
	.st1{clip-path:url(#SVGID_4_);}
	.st2{clip-path:url(#SVGID_6_);}
	.st3{clip-path:url(#SVGID_8_);}
	.st4{clip-path:url(#SVGID_10_);}
	.st5{clip-path:url(#SVGID_12_);}
	.st6{clip-path:url(#SVGID_14_);}
</style>
<g>
	<g>
		<g>
			<g>
				<defs>
					<rect id="SVGID_1_" x="0.44" y="0.34" width="185.98" height="57.95"/>
					        <linearGradient id="logo-gradient" x1="50%" y1="0%" x2="50%" y2="100%" > 
            
            <stop offset="0%" stop-color="#7A5FFF">
                <animate attributeName="stop-color" values="#7A5FFF; #01FF89; #7A5FFF" dur="4s" repeatCount="indefinite"></animate>
            </stop>

            <stop offset="100%" stop-color="#01FF89">
                <animate attributeName="stop-color" values="#01FF89; #7A5FFF; #01FF89" dur="4s" repeatCount="indefinite"></animate>
            </stop>

        </linearGradient> 
				</defs>
				<clipPath id="SVGID_2_">
					<use xlink:href="#SVGID_1_"  style="overflow:visible;"/>
				</clipPath>
				<path class="st0" d="M183.78,20.74c-1.46,0-2.64-1.18-2.64-2.64c-0.01-1.45,1.18-2.64,2.64-2.64c1.45,0,2.64,1.19,2.64,2.64
					C186.42,19.56,185.23,20.73,183.78,20.74 M183.77,15.76c-1.28,0-2.33,1.05-2.32,2.34c0,1.29,1.04,2.33,2.33,2.33
					c1.28,0,2.33-1.04,2.33-2.33S185.06,15.76,183.77,15.76z M183.4,19.16c0.04,0.09,0.18,0.14,0.34,0.12v0.14h-1.22v-0.14
					c0.18,0,0.38-0.05,0.38-0.2v-2.2c0-0.22-0.03-0.23-0.34-0.23v-0.14h1.28c0.2,0,0.41,0.01,0.59,0.08
					c0.12,0.05,0.31,0.15,0.4,0.31c0.2,0.35,0.01,0.74-0.15,0.89c-0.08,0.07-0.28,0.21-0.54,0.21l0.92,1.18
					c0.08,0.11,0.18,0.11,0.28,0.11v0.14h-0.73l-1.02-1.35h-0.2v0.98C183.38,19.1,183.39,19.14,183.4,19.16z M183.38,17.89
					c0.16-0.01,0.35,0.01,0.55-0.06c0.35-0.11,0.49-0.33,0.45-0.63c-0.04-0.41-0.32-0.5-0.44-0.5h-0.41c-0.08,0-0.15,0.04-0.15,0.17
					V17.89z"/>
			</g>
		</g>
		<g>
			<g>
				<defs>
					<rect id="SVGID_3_" x="0.44" y="0.34" width="185.98" height="57.95"/>
				</defs>
				<clipPath id="SVGID_4_">
					<use xlink:href="#SVGID_3_"  style="overflow:visible;"/>
				</clipPath>
				<path class="st1" fill="url('#logo-gradient')" d="M6.15,43.92c-3.58-4.58-5.71-10.34-5.71-16.6c0-14.9,12.08-26.98,26.98-26.98c7.36,0,14.04,2.95,18.91,7.73
					l-4.12,4.12C16.74-7.59-5.74,20.24,3.13,38.5C-4.01,14.1,24.04,0.58,38.75,15.74c-1,0.98-4.04,3.96-4.04,3.96
					C16.95,4.63-3,24.08,3.99,39.58c-3.95-21.9,19.43-25.77,27.4-16.6c-1.32,1.4-2.64,2.81-3.96,4.21c-7.71-6.8-17.12-4.2-21.11,2.4
					C2.23,36.36,5.98,43.62,6.15,43.92"/>
			</g>
		</g>
		<g>
			<g>
				<defs>
					<rect id="SVGID_5_" x="0.44" y="0.34" width="185.98" height="57.95"/>
				</defs>
				<clipPath id="SVGID_6_">
					<use xlink:href="#SVGID_5_"  style="overflow:visible;"/>
				</clipPath>
				<path class="st2" fill="url('#logo-gradient')" d="M48.71,10.45c3.58,4.58,5.71,10.34,5.71,16.6c0,14.9-12.08,26.98-26.98,26.98
					c-7.36,0-14.04-2.95-18.91-7.73l4.12-4.12c25.47,19.78,47.95-8.05,39.08-26.3c7.14,24.4-20.91,37.92-35.62,22.76
					c1.35-1.32,2.69-2.64,4.04-3.96C37.91,49.74,57.86,30.3,50.87,14.8c3.95,21.9-19.43,25.76-27.4,16.59
					c1.32-1.4,2.64-2.81,3.96-4.21C39.56,37.89,55.9,25.31,48.71,10.45"/>
			</g>
		</g>
	</g>
	<polyline points="73.35,23.4 73.35,13.62 78.21,13.62 78.21,38.05 73.35,38.05 73.35,27.15 67.79,27.15 67.79,38.05 62.94,38.05 
		62.94,13.62 67.79,13.62 67.79,23.4 73.35,23.4 	"/>
	<path d="M79.47,28.71c0-5.03,0.69-9.34,7.14-9.34s7.14,4.3,7.14,9.34c0,5.76-0.83,9.81-7.14,9.81S79.47,34.47,79.47,28.71
		 M88.86,28.42c0-3.83-0.17-5.76-2.25-5.76s-2.25,1.93-2.25,5.76c0,5.62,0.45,6.82,2.25,6.82S88.86,34.03,88.86,28.42z"/>
	<path d="M94.97,16.69l4.89-2.3v5.23h2.53v3.18h-2.53v9.87c0,1.39-0.03,2.3,1.56,2.3c0.31,0,0.62,0,0.87-0.07v3.18
		c-0.66,0.07-1.35,0.18-2.53,0.18c-4.24,0-4.79-2.96-4.79-4.09V16.69"/>
	<path d="M109.63,38.53c-4.88,0-7.45-3.43-6.88-7.95h4.6c0,2.33,0.35,4.3,3.02,4.3c1.64,0,3.29-1.11,3.29-2.77
		c0-6.11-10.71-2.88-10.71-11.93c0-3.82,1.84-6.88,7.75-6.88c4.72,0,7.25,1.71,7.24,6.88h-4.72c0-1.83-0.78-3.51-2.74-3.51
		c-1.58,0-2.69,1.19-2.69,2.89c0,5.72,10.89,2.28,10.89,11.9C118.66,37.78,113.32,38.53,109.63,38.53"/>
	<path d="M124.29,42.97h-4.47V19.48h4.31v1.89h0.06c0.84-1.66,2.09-2.23,3.83-2.23c5.23,0,5.73,5.48,5.73,9
		c0,3.45-0.21,10.27-5.64,10.27c-2.09,0-2.88-0.54-3.82-2L124.29,42.97 M129.08,28.65c0-3.42-0.55-5.79-2.51-5.79
		c-1.86,0-2.41,2.37-2.41,5.79c0,4.3,0.87,6.09,2.41,6.09C128.21,34.74,129.08,32.95,129.08,28.65z"/>
	<path d="M139.18,19.67v2.38h0.07c0.9-2.12,2.96-2.98,4.93-2.74v4.3c-4.3-0.29-4.76,1.29-4.76,4.47v10.05h-4.89V19.67H139.18"/>
	<path d="M145.42,19.6h4.53v18.52h-4.53V19.6z M145.42,14.22h4.53v3.96h-4.53V14.22z"/>
	<path d="M156.15,21.62h0.07c0.72-1.77,2.87-2.54,4.71-2.54c2.32,0,4.37,1.77,4.37,4.33v14.8h-4.6V25.49c0-1.64-0.57-2.74-2.13-2.74
		s-2.42,1.1-2.42,2.74v12.72h-4.68V19.76h4.68V21.62"/>
	<path d="M175.92,35.63c-1.13,1.17-2.65,1.87-4.13,1.87c-5.3,0-5.46-5.83-5.46-9.69c0-3.76,0.61-8.73,5.79-8.73
		c1.61,0,3.19,0.95,3.84,2.54h0.06v-2h4.31v17.8c0,1.18-0.89,5.85-7.12,5.85c-2.55,0-6.27-0.68-6.36-4.85h4.43
		c0,0.71,0.58,1.84,1.9,1.84c1.12,0,2.63-0.78,2.63-2.51L175.92,35.63 M173.54,34c1.64,0,2.32-1.67,2.32-5.29
		c0-3.76-0.69-5.96-2.36-5.96c-1.7,0-2.32,1.33-2.32,6.54C171.18,30.88,171.36,34,173.54,34z"/>
	<polyline points="88.31,48.92 92.06,48.92 91.91,49.7 88.97,49.7 88.46,52.08 91.15,52.08 90.99,52.85 88.31,52.85 87.76,55.44 
		90.74,55.44 90.58,56.21 86.76,56.21 88.31,48.92 	"/>
	<polyline points="93.65,54.06 93.74,55.05 93.76,55.05 94.21,54.04 95.97,51.01 96.87,51.01 93.62,56.33 93.28,56.33 92.27,51.01 
		93.11,51.01 93.65,54.06 	"/>
	<path d="M100.17,55.7c-0.24,0.21-0.53,0.37-0.86,0.47c-0.33,0.11-0.66,0.17-1,0.17c-0.56,0-0.97-0.16-1.26-0.48
		c-0.28-0.32-0.42-0.76-0.42-1.33s0.08-1.08,0.24-1.53c0.16-0.45,0.37-0.83,0.63-1.15c0.26-0.31,0.56-0.55,0.88-0.72
		c0.33-0.17,0.67-0.25,1.02-0.25c0.25,0,0.47,0.03,0.65,0.1s0.33,0.16,0.45,0.28c0.12,0.11,0.21,0.25,0.26,0.4
		c0.06,0.15,0.08,0.31,0.08,0.47c0,0.49-0.24,0.88-0.72,1.16s-1.18,0.42-2.09,0.42c-0.08,0-0.17,0-0.26-0.01
		c-0.09,0-0.19-0.01-0.28-0.01c-0.03,0.13-0.05,0.26-0.06,0.38s-0.02,0.22-0.02,0.31c0,0.38,0.09,0.69,0.26,0.93
		c0.17,0.24,0.44,0.36,0.81,0.36c0.31,0,0.58-0.05,0.84-0.15c0.25-0.1,0.45-0.21,0.59-0.32L100.17,55.7 M99.28,51.55
		c-0.38,0-0.71,0.13-1,0.39c-0.28,0.26-0.49,0.65-0.64,1.17c0.26,0,0.54-0.01,0.82-0.02c0.28-0.01,0.54-0.05,0.78-0.11
		c0.23-0.06,0.42-0.15,0.58-0.28c0.15-0.13,0.23-0.31,0.23-0.54c0-0.07-0.01-0.14-0.04-0.21c-0.02-0.07-0.06-0.14-0.12-0.2
		c-0.06-0.06-0.13-0.11-0.23-0.15C99.56,51.57,99.43,51.55,99.28,51.55z"/>
	<g>
		<g>
			<g>
				<defs>
					<rect id="SVGID_7_" x="0.44" y="0.34" width="185.98" height="57.95"/>
				</defs>
				<clipPath id="SVGID_8_">
					<use xlink:href="#SVGID_7_"  style="overflow:visible;"/>
				</clipPath>
				<path class="st3" d="M104.7,51.69c-0.06-0.01-0.13-0.03-0.19-0.03c-0.07-0.01-0.13-0.01-0.18-0.01c-0.35,0-0.66,0.11-0.92,0.33
					c-0.26,0.22-0.46,0.49-0.6,0.81l-0.72,3.42h-0.78l1.1-5.21h0.54v0.9h0.04c0.08-0.13,0.17-0.26,0.27-0.37s0.2-0.22,0.32-0.31
					s0.25-0.16,0.39-0.21s0.29-0.08,0.46-0.08c0.15,0,0.31,0.02,0.48,0.07L104.7,51.69"/>
			</g>
		</g>
		<g>
			<g>
				<defs>
					<rect id="SVGID_9_" x="0.44" y="0.34" width="185.98" height="57.95"/>
				</defs>
				<clipPath id="SVGID_10_">
					<use xlink:href="#SVGID_9_"  style="overflow:visible;"/>
				</clipPath>
				<path class="st4" d="M106.36,54.38l0.05,1h0.05l0.39-1.01l1.73-3.36h0.83l-2.46,4.64c-0.18,0.34-0.36,0.67-0.54,0.99
					c-0.18,0.32-0.36,0.61-0.55,0.86s-0.38,0.46-0.58,0.61c-0.2,0.15-0.41,0.23-0.62,0.23c-0.12,0-0.22-0.01-0.31-0.02
					c-0.09-0.01-0.17-0.04-0.23-0.07l0.25-0.72c0.08,0.03,0.16,0.04,0.25,0.04c0.2,0,0.4-0.1,0.6-0.31c0.2-0.21,0.43-0.56,0.68-1.05
					L105.01,51h0.83L106.36,54.38"/>
			</g>
		</g>
	</g>
	<path d="M115.77,54.42c-0.06,0.27-0.1,0.52-0.12,0.76s-0.04,0.45-0.04,0.66c0,0.08,0,0.15,0,0.21c0,0.06,0.01,0.12,0.01,0.19h-0.52
		l-0.15-0.91h-0.04c-0.08,0.12-0.19,0.24-0.31,0.36c-0.12,0.12-0.26,0.23-0.42,0.33c-0.15,0.1-0.31,0.17-0.48,0.23
		c-0.17,0.06-0.35,0.09-0.53,0.09c-0.38,0-0.68-0.14-0.91-0.42s-0.34-0.73-0.34-1.34c0-0.41,0.06-0.83,0.18-1.26
		c0.12-0.43,0.29-0.83,0.52-1.18c0.23-0.35,0.51-0.65,0.86-0.88c0.34-0.23,0.74-0.34,1.19-0.34c0.12,0,0.23,0,0.32,0.01
		s0.17,0.02,0.25,0.03s0.15,0.03,0.22,0.06c0.07,0.02,0.14,0.05,0.22,0.08l0.46-2.17h0.78L115.77,54.42 M113.47,55.67
		c0.15,0,0.3-0.04,0.45-0.12c0.15-0.08,0.3-0.18,0.43-0.3s0.26-0.25,0.36-0.38c0.11-0.14,0.19-0.26,0.25-0.38l0.58-2.71
		c-0.12-0.08-0.25-0.13-0.4-0.16s-0.35-0.05-0.59-0.05c-0.28,0-0.53,0.09-0.75,0.26s-0.41,0.4-0.57,0.68
		c-0.16,0.28-0.28,0.61-0.36,0.98s-0.12,0.75-0.12,1.14c0,0.28,0.06,0.53,0.17,0.73C113.04,55.57,113.22,55.67,113.47,55.67z"/>
	<g>
		<g>
			<g>
				<defs>
					<rect id="SVGID_11_" x="0.44" y="0.34" width="185.98" height="57.95"/>
				</defs>
				<clipPath id="SVGID_12_">
					<use xlink:href="#SVGID_11_"  style="overflow:visible;"/>
				</clipPath>
				<path class="st5" d="M121.01,54.16c-0.06,0.26-0.09,0.52-0.11,0.78c-0.02,0.26-0.03,0.51-0.03,0.74c0,0.1,0,0.2,0,0.3
					c0,0.09,0.01,0.18,0.02,0.26h-0.57l-0.15-0.91h-0.04c-0.08,0.12-0.19,0.24-0.31,0.36c-0.12,0.12-0.25,0.23-0.4,0.33
					c-0.15,0.1-0.3,0.17-0.47,0.23s-0.34,0.09-0.53,0.09c-0.83,0-1.24-0.54-1.24-1.61c0-0.44,0.06-0.9,0.17-1.35
					c0.11-0.46,0.29-0.87,0.53-1.24c0.24-0.37,0.55-0.67,0.92-0.91c0.38-0.24,0.83-0.35,1.37-0.35c0.19,0,0.43,0.02,0.71,0.07
					s0.54,0.11,0.78,0.18L121.01,54.16 M118.66,55.67c0.17,0,0.33-0.04,0.48-0.12c0.15-0.08,0.3-0.18,0.43-0.3s0.26-0.25,0.36-0.38
					c0.1-0.14,0.19-0.26,0.25-0.38l0.58-2.81c-0.21-0.1-0.47-0.15-0.79-0.15s-0.6,0.09-0.84,0.28s-0.45,0.43-0.61,0.73
					c-0.17,0.3-0.29,0.64-0.38,1.02c-0.08,0.38-0.12,0.76-0.12,1.15c0,0.26,0.05,0.49,0.16,0.67
					C118.27,55.58,118.44,55.67,118.66,55.67z"/>
			</g>
		</g>
		<g>
			<g>
				<defs>
					<rect id="SVGID_13_" x="0.44" y="0.34" width="185.98" height="57.95"/>
				</defs>
				<clipPath id="SVGID_14_">
					<use xlink:href="#SVGID_13_"  style="overflow:visible;"/>
				</clipPath>
				<path class="st6" d="M123.8,54.38l0.05,1h0.05l0.4-1.01l1.73-3.36h0.83l-2.46,4.64c-0.18,0.34-0.36,0.67-0.54,0.99
					c-0.18,0.32-0.36,0.61-0.55,0.86s-0.38,0.46-0.58,0.61c-0.2,0.15-0.41,0.23-0.62,0.23c-0.12,0-0.22-0.01-0.31-0.02
					c-0.09-0.01-0.16-0.04-0.23-0.07l0.25-0.72c0.08,0.03,0.16,0.04,0.25,0.04c0.2,0,0.4-0.1,0.6-0.31c0.2-0.21,0.43-0.56,0.68-1.05
					l-0.9-5.21h0.83L123.8,54.38"/>
			</g>
		</g>
	</g>
	<path d="M132.03,56.21l0.62-2.95c0.06-0.24,0.1-0.46,0.12-0.65c0.03-0.19,0.04-0.35,0.04-0.49c0-0.19-0.04-0.33-0.1-0.43
		c-0.07-0.1-0.19-0.15-0.35-0.15c-0.17,0-0.34,0.04-0.51,0.13s-0.32,0.2-0.47,0.34s-0.28,0.28-0.4,0.43s-0.22,0.29-0.29,0.42
		L130,56.2h-0.78l1.1-5.21h0.55l-0.06,0.9h0.04c0.11-0.11,0.23-0.23,0.36-0.35s0.27-0.23,0.43-0.33c0.16-0.1,0.33-0.18,0.51-0.24
		s0.39-0.1,0.61-0.1c0.31,0,0.52,0.1,0.63,0.29c0.11,0.19,0.16,0.47,0.16,0.81c0.1-0.13,0.23-0.26,0.37-0.4
		c0.14-0.13,0.29-0.25,0.45-0.35s0.33-0.19,0.51-0.26c0.18-0.06,0.36-0.1,0.54-0.1c0.32,0,0.56,0.07,0.73,0.22s0.26,0.43,0.26,0.83
		c0,0.29-0.05,0.68-0.16,1.16l-0.66,3.12h-0.78l0.66-3.13c0.04-0.2,0.07-0.38,0.1-0.54c0.02-0.16,0.04-0.3,0.04-0.42
		c0-0.19-0.04-0.33-0.11-0.43c-0.08-0.1-0.21-0.15-0.39-0.15c-0.15,0-0.3,0.05-0.46,0.14s-0.32,0.21-0.47,0.35s-0.29,0.29-0.41,0.45
		c-0.12,0.16-0.22,0.31-0.29,0.45l-0.68,3.28h-0.77"/>
	<path d="M141.09,54.16c-0.06,0.26-0.09,0.52-0.11,0.78s-0.03,0.51-0.03,0.74c0,0.1,0,0.2,0,0.3c0,0.09,0.01,0.18,0.02,0.26h-0.57
		l-0.15-0.91h-0.04c-0.08,0.12-0.18,0.24-0.31,0.36c-0.12,0.12-0.26,0.23-0.4,0.33c-0.15,0.1-0.3,0.17-0.47,0.23
		s-0.34,0.09-0.53,0.09c-0.83,0-1.24-0.54-1.24-1.61c0-0.44,0.06-0.9,0.17-1.35s0.29-0.87,0.53-1.24s0.55-0.67,0.92-0.91
		c0.38-0.24,0.83-0.35,1.37-0.35c0.19,0,0.43,0.02,0.71,0.07c0.28,0.05,0.54,0.11,0.78,0.18L141.09,54.16 M138.74,55.67
		c0.17,0,0.33-0.04,0.48-0.12c0.15-0.08,0.3-0.18,0.43-0.3c0.14-0.12,0.25-0.25,0.36-0.38c0.1-0.14,0.19-0.26,0.25-0.38l0.58-2.81
		c-0.21-0.1-0.47-0.15-0.79-0.15s-0.6,0.09-0.84,0.28c-0.24,0.19-0.45,0.43-0.61,0.73c-0.17,0.3-0.29,0.64-0.38,1.02
		c-0.08,0.38-0.12,0.76-0.12,1.15c0,0.26,0.05,0.49,0.16,0.67C138.36,55.58,138.52,55.67,138.74,55.67z"/>
	<path d="M146.23,54.42c-0.06,0.27-0.1,0.52-0.12,0.76c-0.03,0.24-0.04,0.45-0.04,0.66c0,0.08,0,0.15,0.01,0.21
		c0,0.06,0.01,0.12,0.02,0.19h-0.52l-0.15-0.91h-0.04c-0.08,0.12-0.19,0.24-0.31,0.36s-0.26,0.23-0.42,0.33
		c-0.15,0.1-0.31,0.17-0.49,0.23c-0.17,0.06-0.35,0.09-0.52,0.09c-0.38,0-0.69-0.14-0.91-0.42c-0.23-0.28-0.34-0.73-0.34-1.34
		c0-0.41,0.06-0.83,0.18-1.26c0.12-0.43,0.29-0.83,0.52-1.18c0.23-0.35,0.51-0.65,0.86-0.88c0.34-0.23,0.74-0.34,1.19-0.34
		c0.12,0,0.23,0,0.32,0.01s0.18,0.02,0.26,0.03s0.15,0.03,0.22,0.06c0.07,0.02,0.14,0.05,0.22,0.08l0.46-2.17h0.78L146.23,54.42
		 M143.93,55.67c0.15,0,0.3-0.04,0.45-0.12c0.15-0.08,0.3-0.18,0.43-0.3c0.14-0.12,0.26-0.25,0.36-0.38
		c0.11-0.14,0.19-0.26,0.26-0.38l0.58-2.71c-0.12-0.08-0.25-0.13-0.4-0.16s-0.35-0.05-0.59-0.05c-0.28,0-0.53,0.09-0.75,0.26
		s-0.41,0.4-0.57,0.68s-0.27,0.61-0.36,0.98c-0.08,0.37-0.12,0.75-0.12,1.14c0,0.28,0.06,0.53,0.17,0.73
		C143.5,55.57,143.68,55.67,143.93,55.67z"/>
	<path d="M151.21,55.7c-0.24,0.21-0.53,0.37-0.86,0.47c-0.33,0.11-0.66,0.16-0.99,0.16c-0.56,0-0.97-0.16-1.25-0.48
		s-0.42-0.76-0.42-1.33s0.08-1.08,0.24-1.53c0.16-0.45,0.37-0.83,0.63-1.15c0.26-0.31,0.56-0.55,0.88-0.72
		c0.33-0.17,0.67-0.25,1.02-0.25c0.25,0,0.47,0.03,0.65,0.1s0.34,0.16,0.45,0.28c0.12,0.11,0.21,0.25,0.26,0.4
		c0.06,0.15,0.08,0.31,0.08,0.47c0,0.49-0.24,0.88-0.72,1.16s-1.18,0.42-2.09,0.42c-0.08,0-0.17,0-0.26-0.01
		c-0.09,0-0.18-0.01-0.28-0.01c-0.03,0.13-0.05,0.26-0.06,0.38c-0.01,0.12-0.02,0.22-0.02,0.31c0,0.38,0.09,0.69,0.26,0.93
		s0.44,0.36,0.81,0.36c0.31,0,0.58-0.05,0.84-0.15c0.25-0.1,0.45-0.21,0.59-0.32L151.21,55.7 M150.33,51.55
		c-0.38,0-0.71,0.13-0.99,0.39s-0.5,0.65-0.64,1.17c0.26,0,0.54-0.01,0.82-0.02c0.29-0.01,0.54-0.05,0.78-0.11
		c0.23-0.06,0.43-0.15,0.58-0.28c0.15-0.13,0.23-0.31,0.23-0.54c0-0.07-0.01-0.14-0.04-0.21c-0.02-0.07-0.06-0.14-0.12-0.2
		s-0.13-0.11-0.24-0.15C150.61,51.57,150.48,51.55,150.33,51.55z"/>
	<path d="M156.69,48.92h0.78l-0.63,2.98h0.04c0.1-0.12,0.21-0.25,0.33-0.37s0.26-0.23,0.42-0.33c0.15-0.1,0.32-0.17,0.49-0.23
		s0.36-0.09,0.56-0.09c0.41,0,0.71,0.14,0.89,0.43c0.19,0.29,0.28,0.65,0.28,1.09c0,0.62-0.09,1.18-0.26,1.66s-0.4,0.89-0.69,1.22
		c-0.28,0.33-0.61,0.59-0.97,0.76s-0.74,0.26-1.12,0.26c-0.38,0-0.7-0.04-0.98-0.12s-0.49-0.18-0.62-0.29L156.69,48.92
		 M158.43,51.55c-0.17,0-0.35,0.04-0.53,0.13s-0.35,0.2-0.52,0.34c-0.16,0.14-0.31,0.29-0.45,0.46s-0.24,0.33-0.33,0.49l-0.52,2.45
		c0.21,0.15,0.5,0.22,0.88,0.22c0.22,0,0.46-0.07,0.7-0.2c0.24-0.14,0.47-0.33,0.67-0.59s0.37-0.58,0.5-0.96
		c0.13-0.38,0.19-0.81,0.19-1.3c0-0.35-0.05-0.62-0.16-0.79S158.61,51.55,158.43,51.55z"/>
	<path d="M164.24,55.7c-0.24,0.21-0.53,0.37-0.86,0.47c-0.33,0.11-0.66,0.16-0.99,0.16c-0.55,0-0.97-0.16-1.26-0.48
		c-0.28-0.32-0.42-0.76-0.42-1.33s0.08-1.08,0.24-1.53c0.16-0.45,0.37-0.83,0.63-1.15c0.26-0.31,0.56-0.55,0.88-0.72
		c0.33-0.17,0.67-0.25,1.01-0.25c0.25,0,0.47,0.03,0.65,0.1s0.33,0.16,0.45,0.28c0.12,0.11,0.21,0.25,0.26,0.4
		c0.06,0.15,0.08,0.31,0.08,0.47c0,0.49-0.24,0.88-0.72,1.16s-1.18,0.42-2.09,0.42c-0.08,0-0.17,0-0.26-0.01
		c-0.09,0-0.18-0.01-0.28-0.01c-0.03,0.13-0.05,0.26-0.06,0.38c-0.01,0.12-0.02,0.22-0.02,0.31c0,0.38,0.09,0.69,0.26,0.93
		s0.44,0.36,0.81,0.36c0.3,0,0.58-0.05,0.84-0.15c0.25-0.1,0.45-0.21,0.59-0.32L164.24,55.7 M163.35,51.55
		c-0.38,0-0.71,0.13-0.99,0.39s-0.49,0.65-0.64,1.17c0.26,0,0.54-0.01,0.82-0.02c0.28-0.01,0.54-0.05,0.78-0.11
		c0.23-0.06,0.42-0.15,0.58-0.28c0.15-0.13,0.23-0.31,0.23-0.54c0-0.07-0.01-0.14-0.04-0.21c-0.02-0.07-0.06-0.14-0.12-0.2
		s-0.13-0.11-0.24-0.15C163.63,51.57,163.51,51.55,163.35,51.55z"/>
	<path d="M165.77,51.01h0.77l0.22-1.03l0.83-0.24l-0.27,1.27h1.36l-0.16,0.67h-1.35l-0.66,3.14c-0.01,0.08-0.03,0.16-0.04,0.23
		s-0.01,0.13-0.01,0.19c0,0.17,0.04,0.28,0.11,0.34c0.08,0.06,0.19,0.09,0.34,0.09c0.17,0,0.32-0.02,0.46-0.06s0.28-0.1,0.42-0.19
		v0.63c-0.15,0.08-0.33,0.15-0.56,0.2s-0.45,0.08-0.66,0.08c-0.63,0-0.95-0.29-0.95-0.86c0-0.12,0.02-0.26,0.05-0.44l0.71-3.36
		h-0.78L165.77,51.01"/>
	<path d="M169.03,51.01h0.77l0.22-1.03l0.83-0.24l-0.27,1.27h1.36l-0.16,0.67h-1.35l-0.66,3.14c-0.01,0.08-0.03,0.16-0.04,0.23
		s-0.02,0.13-0.02,0.19c0,0.17,0.04,0.28,0.12,0.34s0.19,0.09,0.34,0.09c0.17,0,0.32-0.02,0.46-0.06s0.28-0.1,0.42-0.19v0.63
		c-0.15,0.08-0.33,0.15-0.56,0.2s-0.45,0.08-0.66,0.08c-0.63,0-0.95-0.29-0.95-0.86c0-0.12,0.02-0.26,0.05-0.44l0.71-3.36h-0.78
		L169.03,51.01"/>
	<path d="M175.6,55.7c-0.24,0.21-0.53,0.37-0.86,0.47c-0.33,0.11-0.66,0.16-1,0.16c-0.55,0-0.97-0.16-1.25-0.48
		s-0.42-0.76-0.42-1.33s0.08-1.08,0.24-1.53c0.16-0.45,0.37-0.83,0.63-1.15c0.26-0.31,0.55-0.55,0.88-0.72
		c0.33-0.17,0.67-0.25,1.01-0.25c0.25,0,0.47,0.03,0.65,0.1s0.34,0.16,0.45,0.28c0.12,0.11,0.21,0.25,0.26,0.4
		c0.06,0.15,0.08,0.31,0.08,0.47c0,0.49-0.24,0.88-0.72,1.16s-1.18,0.42-2.09,0.42c-0.08,0-0.17,0-0.26-0.01
		c-0.09,0-0.18-0.01-0.28-0.01c-0.03,0.13-0.05,0.26-0.06,0.38c-0.01,0.12-0.02,0.22-0.02,0.31c0,0.38,0.09,0.69,0.26,0.93
		s0.44,0.36,0.81,0.36c0.31,0,0.59-0.05,0.84-0.15c0.25-0.1,0.45-0.21,0.59-0.32L175.6,55.7 M174.71,51.55
		c-0.38,0-0.71,0.13-0.99,0.39s-0.5,0.65-0.64,1.17c0.26,0,0.54-0.01,0.82-0.02c0.29-0.01,0.54-0.05,0.78-0.11
		c0.23-0.06,0.43-0.15,0.58-0.28c0.15-0.13,0.23-0.31,0.23-0.54c0-0.07-0.01-0.14-0.04-0.21c-0.02-0.07-0.06-0.14-0.12-0.2
		s-0.13-0.11-0.24-0.15C174.99,51.57,174.87,51.55,174.71,51.55z"/>
	<path d="M180.14,51.69c-0.06-0.01-0.13-0.03-0.19-0.03c-0.07-0.01-0.13-0.01-0.18-0.01c-0.35,0-0.66,0.11-0.92,0.33
		s-0.46,0.49-0.6,0.81l-0.72,3.42h-0.78l1.1-5.21h0.54v0.9h0.04c0.08-0.13,0.17-0.26,0.27-0.37s0.21-0.22,0.32-0.31
		s0.25-0.16,0.38-0.21c0.14-0.05,0.29-0.08,0.46-0.08c0.15,0,0.31,0.02,0.48,0.07L180.14,51.69"/>
	<path d="M180.61,49.74c0-0.19,0.03-0.36,0.09-0.51c0.06-0.15,0.15-0.27,0.26-0.37s0.24-0.17,0.38-0.23
		c0.14-0.05,0.29-0.08,0.46-0.08c0.16,0,0.32,0.03,0.46,0.08c0.15,0.05,0.27,0.13,0.38,0.23s0.19,0.22,0.25,0.37
		s0.09,0.32,0.09,0.51s-0.03,0.36-0.09,0.51c-0.06,0.15-0.15,0.27-0.26,0.37s-0.23,0.18-0.38,0.23c-0.14,0.05-0.29,0.08-0.46,0.08
		c-0.17,0-0.32-0.03-0.46-0.08c-0.14-0.05-0.27-0.13-0.38-0.23s-0.19-0.22-0.25-0.37C180.65,50.1,180.61,49.93,180.61,49.74
		 M180.9,49.74c0,0.15,0.02,0.29,0.07,0.4c0.05,0.12,0.11,0.21,0.19,0.29s0.18,0.13,0.29,0.17c0.11,0.04,0.23,0.06,0.35,0.06
		c0.13,0,0.25-0.02,0.36-0.06s0.21-0.09,0.28-0.17c0.08-0.08,0.14-0.17,0.19-0.29c0.05-0.11,0.07-0.25,0.07-0.41
		c0-0.15-0.02-0.29-0.07-0.4s-0.11-0.21-0.19-0.28c-0.08-0.08-0.18-0.13-0.29-0.17c-0.11-0.04-0.23-0.06-0.35-0.06
		c-0.13,0-0.25,0.02-0.36,0.06s-0.21,0.1-0.29,0.17c-0.08,0.08-0.14,0.17-0.19,0.28C180.92,49.45,180.9,49.58,180.9,49.74z
		 M181.34,49.16c0.05-0.02,0.11-0.03,0.2-0.03c0.09-0.01,0.17-0.01,0.24-0.01c0.12,0,0.23,0.03,0.32,0.08
		c0.09,0.05,0.13,0.14,0.13,0.27c0,0.1-0.03,0.17-0.09,0.22c-0.06,0.05-0.14,0.08-0.23,0.08l0.12,0.06l0.33,0.49h-0.27l-0.32-0.46
		l-0.21-0.07v0.53h-0.23L181.34,49.16L181.34,49.16z M181.73,49.31c-0.03,0-0.06,0-0.09,0s-0.05,0.01-0.07,0.01v0.32h0.15
		c0.09,0,0.15-0.01,0.2-0.04c0.05-0.03,0.07-0.07,0.07-0.14C181.99,49.37,181.91,49.31,181.73,49.31z"/>
</g>
</svg>
